<svg xmlns="http://www.w3.org/2000/svg" version="1.1" xmlns:xlink="http://www.w3.org/1999/xlink" xmlns:svgjs="http://svgjs.dev/svgjs" width="1440" height="630" preserveAspectRatio="none" viewBox="0 0 1440 630"><g mask="url(&quot;#SvgjsMask2915&quot;)" fill="none"><rect width="1440" height="630" x="0" y="0" fill="url(&quot;#SvgjsLinearGradient2916&quot;)"></rect><path d="M-106.02 517.05L-106.02 517.05" stroke="rgba(19, 46, 101, 0.1)" stroke-width="1.5"></path><path d="M-106.02 517.05L50.53 506.84" stroke="rgba(19, 46, 101, 0.1)" stroke-width="1.5"></path><path d="M-106.02 517.05L-98.8 700.82" stroke="rgba(19, 46, 101, 0.1)" stroke-width="1.5"></path><path d="M-98.8 700.82L-98.8 700.82" stroke="rgba(19, 46, 101, 0.1)" stroke-width="1.5"></path><path d="M-98.8 700.82L-48.67 797.12" stroke="rgba(19, 46, 101, 0.1)" stroke-width="1.5"></path><path d="M-98.8 700.82L46.58 677.37" stroke="rgba(19, 46, 101, 0.1)" stroke-width="1.5"></path><path d="M-98.8 700.82L50.53 506.84" stroke="rgba(19, 46, 101, 0.1)" stroke-width="1.5"></path><path d="M-98.8 700.82L99.2 856.74" stroke="rgba(19, 46, 101, 0.1)" stroke-width="1.5"></path><path d="M-98.8 700.82L241.33 701.81" stroke="rgba(19, 46, 101, 0.1)" stroke-width="1.5"></path><path d="M-48.67 797.12L-48.67 797.12" stroke="rgba(19, 46, 101, 0.1)" stroke-width="1.5"></path><path d="M-48.67 797.12L46.58 677.37" stroke="rgba(19, 46, 101, 0.1)" stroke-width="1.5"></path><path d="M-48.67 797.12L99.2 856.74" stroke="rgba(19, 46, 101, 0.1)" stroke-width="1.5"></path><path d="M-48.67 797.12L216.34 860.69" stroke="rgba(19, 46, 101, 0.1)" stroke-width="1.5"></path><path d="M-48.67 797.12L-106.02 517.05" stroke="rgba(19, 46, 101, 0.1)" stroke-width="1.5"></path><path d="M-48.67 797.12L241.33 701.81" stroke="rgba(19, 46, 101, 0.1)" stroke-width="1.5"></path><path d="M69.52 398.63L69.52 398.63" stroke="rgba(19, 46, 101, 0.1)" stroke-width="1.5"></path><path d="M69.52 398.63L50.53 506.84" stroke="rgba(19, 46, 101, 0.1)" stroke-width="1.5"></path><path d="M69.52 398.63L235.19 376.85" stroke="rgba(19, 46, 101, 0.1)" stroke-width="1.5"></path><path d="M69.52 398.63L-106.02 517.05" stroke="rgba(19, 46, 101, 0.1)" stroke-width="1.5"></path><path d="M69.52 398.63L260.93 535.62" stroke="rgba(19, 46, 101, 0.1)" stroke-width="1.5"></path><path d="M50.53 506.84L50.53 506.84" stroke="rgba(19, 46, 101, 0.1)" stroke-width="1.5"></path><path d="M50.53 506.84L46.58 677.37" stroke="rgba(19, 46, 101, 0.1)" stroke-width="1.5"></path><path d="M50.53 506.84L260.93 535.62" stroke="rgba(19, 46, 101, 0.1)" stroke-width="1.5"></path><path d="M46.58 677.37L46.58 677.37" stroke="rgba(19, 46, 101, 0.1)" stroke-width="1.5"></path><path d="M46.58 677.37L99.2 856.74" stroke="rgba(19, 46, 101, 0.1)" stroke-width="1.5"></path><path d="M46.58 677.37L241.33 701.81" stroke="rgba(19, 46, 101, 0.1)" stroke-width="1.5"></path><path d="M46.58 677.37L-106.02 517.05" stroke="rgba(19, 46, 101, 0.1)" stroke-width="1.5"></path><path d="M99.2 856.74L99.2 856.74" stroke="rgba(19, 46, 101, 0.1)" stroke-width="1.5"></path><path d="M99.2 856.74L216.34 860.69" stroke="rgba(19, 46, 101, 0.1)" stroke-width="1.5"></path><path d="M99.2 856.74L241.33 701.81" stroke="rgba(19, 46, 101, 0.1)" stroke-width="1.5"></path><path d="M235.19 376.85L235.19 376.85" stroke="rgba(19, 46, 101, 0.1)" stroke-width="1.5"></path><path d="M235.19 376.85L361.55 409.28" stroke="rgba(19, 46, 101, 0.1)" stroke-width="1.5"></path><path d="M235.19 376.85L260.93 535.62" stroke="rgba(19, 46, 101, 0.1)" stroke-width="1.5"></path><path d="M235.19 376.85L361.31 503.44" stroke="rgba(19, 46, 101, 0.1)" stroke-width="1.5"></path><path d="M260.93 535.62L260.93 535.62" stroke="rgba(19, 46, 101, 0.1)" stroke-width="1.5"></path><path d="M260.93 535.62L361.31 503.44" stroke="rgba(19, 46, 101, 0.1)" stroke-width="1.5"></path><path d="M260.93 535.62L361.55 409.28" stroke="rgba(19, 46, 101, 0.1)" stroke-width="1.5"></path><path d="M260.93 535.62L382.62 643.82" stroke="rgba(19, 46, 101, 0.1)" stroke-width="1.5"></path><path d="M260.93 535.62L241.33 701.81" stroke="rgba(19, 46, 101, 0.1)" stroke-width="1.5"></path><path d="M241.33 701.81L241.33 701.81" stroke="rgba(19, 46, 101, 0.1)" stroke-width="1.5"></path><path d="M241.33 701.81L382.62 643.82" stroke="rgba(19, 46, 101, 0.1)" stroke-width="1.5"></path><path d="M241.33 701.81L216.34 860.69" stroke="rgba(19, 46, 101, 0.1)" stroke-width="1.5"></path><path d="M216.34 860.69L216.34 860.69" stroke="rgba(19, 46, 101, 0.1)" stroke-width="1.5"></path><path d="M216.34 860.69L411.98 837.76" stroke="rgba(19, 46, 101, 0.1)" stroke-width="1.5"></path><path d="M216.34 860.69L46.58 677.37" stroke="rgba(19, 46, 101, 0.1)" stroke-width="1.5"></path><path d="M361.55 409.28L361.55 409.28" stroke="rgba(19, 46, 101, 0.1)" stroke-width="1.5"></path><path d="M361.55 409.28L361.31 503.44" stroke="rgba(19, 46, 101, 0.1)" stroke-width="1.5"></path><path d="M361.55 409.28L526.68 373.39" stroke="rgba(19, 46, 101, 0.1)" stroke-width="1.5"></path><path d="M361.55 409.28L545.8 547.71" stroke="rgba(19, 46, 101, 0.1)" stroke-width="1.5"></path><path d="M361.31 503.44L361.31 503.44" stroke="rgba(19, 46, 101, 0.1)" stroke-width="1.5"></path><path d="M361.31 503.44L382.62 643.82" stroke="rgba(19, 46, 101, 0.1)" stroke-width="1.5"></path><path d="M382.62 643.82L382.62 643.82" stroke="rgba(19, 46, 101, 0.1)" stroke-width="1.5"></path><path d="M382.62 643.82L509.69 647.74" stroke="rgba(19, 46, 101, 0.1)" stroke-width="1.5"></path><path d="M411.98 837.76L411.98 837.76" stroke="rgba(19, 46, 101, 0.1)" stroke-width="1.5"></path><path d="M411.98 837.76L557.77 841.05" stroke="rgba(19, 46, 101, 0.1)" stroke-width="1.5"></path><path d="M411.98 837.76L382.62 643.82" stroke="rgba(19, 46, 101, 0.1)" stroke-width="1.5"></path><path d="M526.68 373.39L526.68 373.39" stroke="rgba(19, 46, 101, 0.1)" stroke-width="1.5"></path><path d="M526.68 373.39L666.14 354.21" stroke="rgba(19, 46, 101, 0.1)" stroke-width="1.5"></path><path d="M526.68 373.39L545.8 547.71" stroke="rgba(19, 46, 101, 0.1)" stroke-width="1.5"></path><path d="M545.8 547.71L545.8 547.71" stroke="rgba(19, 46, 101, 0.1)" stroke-width="1.5"></path><path d="M545.8 547.71L645.93 535.56" stroke="rgba(19, 46, 101, 0.1)" stroke-width="1.5"></path><path d="M545.8 547.71L509.69 647.74" stroke="rgba(19, 46, 101, 0.1)" stroke-width="1.5"></path><path d="M509.69 647.74L509.69 647.74" stroke="rgba(19, 46, 101, 0.1)" stroke-width="1.5"></path><path d="M509.69 647.74L660.44 705.05" stroke="rgba(19, 46, 101, 0.1)" stroke-width="1.5"></path><path d="M509.69 647.74L645.93 535.56" stroke="rgba(19, 46, 101, 0.1)" stroke-width="1.5"></path><path d="M509.69 647.74L557.77 841.05" stroke="rgba(19, 46, 101, 0.1)" stroke-width="1.5"></path><path d="M557.77 841.05L557.77 841.05" stroke="rgba(19, 46, 101, 0.1)" stroke-width="1.5"></path><path d="M557.77 841.05L676.71 829.5" stroke="rgba(19, 46, 101, 0.1)" stroke-width="1.5"></path><path d="M557.77 841.05L660.44 705.05" stroke="rgba(19, 46, 101, 0.1)" stroke-width="1.5"></path><path d="M557.77 841.05L382.62 643.82" stroke="rgba(19, 46, 101, 0.1)" stroke-width="1.5"></path><path d="M557.77 841.05L545.8 547.71" stroke="rgba(19, 46, 101, 0.1)" stroke-width="1.5"></path><path d="M684.52 246.48L684.52 246.48" stroke="rgba(19, 46, 101, 0.1)" stroke-width="1.5"></path><path d="M684.52 246.48L666.14 354.21" stroke="rgba(19, 46, 101, 0.1)" stroke-width="1.5"></path><path d="M684.52 246.48L851.66 190.71" stroke="rgba(19, 46, 101, 0.1)" stroke-width="1.5"></path><path d="M684.52 246.48L859.03 340.96" stroke="rgba(19, 46, 101, 0.1)" stroke-width="1.5"></path><path d="M666.14 354.21L666.14 354.21" stroke="rgba(19, 46, 101, 0.1)" stroke-width="1.5"></path><path d="M666.14 354.21L645.93 535.56" stroke="rgba(19, 46, 101, 0.1)" stroke-width="1.5"></path><path d="M645.93 535.56L645.93 535.56" stroke="rgba(19, 46, 101, 0.1)" stroke-width="1.5"></path><path d="M645.93 535.56L807.54 506.56" stroke="rgba(19, 46, 101, 0.1)" stroke-width="1.5"></path><path d="M645.93 535.56L660.44 705.05" stroke="rgba(19, 46, 101, 0.1)" stroke-width="1.5"></path><path d="M645.93 535.56L526.68 373.39" stroke="rgba(19, 46, 101, 0.1)" stroke-width="1.5"></path><path d="M660.44 705.05L660.44 705.05" stroke="rgba(19, 46, 101, 0.1)" stroke-width="1.5"></path><path d="M660.44 705.05L676.71 829.5" stroke="rgba(19, 46, 101, 0.1)" stroke-width="1.5"></path><path d="M676.71 829.5L676.71 829.5" stroke="rgba(19, 46, 101, 0.1)" stroke-width="1.5"></path><path d="M676.71 829.5L860.77 792.25" stroke="rgba(19, 46, 101, 0.1)" stroke-width="1.5"></path><path d="M676.71 829.5L841.33 674.99" stroke="rgba(19, 46, 101, 0.1)" stroke-width="1.5"></path><path d="M851.66 190.71L851.66 190.71" stroke="rgba(19, 46, 101, 0.1)" stroke-width="1.5"></path><path d="M851.66 190.71L964.54 198.82" stroke="rgba(19, 46, 101, 0.1)" stroke-width="1.5"></path><path d="M851.66 190.71L859.03 340.96" stroke="rgba(19, 46, 101, 0.1)" stroke-width="1.5"></path><path d="M851.66 190.71L974.71 403.63" stroke="rgba(19, 46, 101, 0.1)" stroke-width="1.5"></path><path d="M851.66 190.71L666.14 354.21" stroke="rgba(19, 46, 101, 0.1)" stroke-width="1.5"></path><path d="M851.66 190.71L1126.23 242.07" stroke="rgba(19, 46, 101, 0.1)" stroke-width="1.5"></path><path d="M859.03 340.96L859.03 340.96" stroke="rgba(19, 46, 101, 0.1)" stroke-width="1.5"></path><path d="M859.03 340.96L974.71 403.63" stroke="rgba(19, 46, 101, 0.1)" stroke-width="1.5"></path><path d="M859.03 340.96L807.54 506.56" stroke="rgba(19, 46, 101, 0.1)" stroke-width="1.5"></path><path d="M859.03 340.96L964.54 198.82" stroke="rgba(19, 46, 101, 0.1)" stroke-width="1.5"></path><path d="M807.54 506.56L807.54 506.56" stroke="rgba(19, 46, 101, 0.1)" stroke-width="1.5"></path><path d="M807.54 506.56L841.33 674.99" stroke="rgba(19, 46, 101, 0.1)" stroke-width="1.5"></path><path d="M807.54 506.56L978.18 552.68" stroke="rgba(19, 46, 101, 0.1)" stroke-width="1.5"></path><path d="M807.54 506.56L974.71 403.63" stroke="rgba(19, 46, 101, 0.1)" stroke-width="1.5"></path><path d="M841.33 674.99L841.33 674.99" stroke="rgba(19, 46, 101, 0.1)" stroke-width="1.5"></path><path d="M841.33 674.99L860.77 792.25" stroke="rgba(19, 46, 101, 0.1)" stroke-width="1.5"></path><path d="M841.33 674.99L660.44 705.05" stroke="rgba(19, 46, 101, 0.1)" stroke-width="1.5"></path><path d="M860.77 792.25L860.77 792.25" stroke="rgba(19, 46, 101, 0.1)" stroke-width="1.5"></path><path d="M860.77 792.25L962.67 814.25" stroke="rgba(19, 46, 101, 0.1)" stroke-width="1.5"></path><path d="M860.77 792.25L660.44 705.05" stroke="rgba(19, 46, 101, 0.1)" stroke-width="1.5"></path><path d="M860.77 792.25L978.18 552.68" stroke="rgba(19, 46, 101, 0.1)" stroke-width="1.5"></path><path d="M1000.06 -83.92L1000.06 -83.92" stroke="rgba(19, 46, 101, 0.1)" stroke-width="1.5"></path><path d="M1000.06 -83.92L1135.65 -62.35" stroke="rgba(19, 46, 101, 0.1)" stroke-width="1.5"></path><path d="M1000.06 -83.92L1160.84 75.06" stroke="rgba(19, 46, 101, 0.1)" stroke-width="1.5"></path><path d="M1000.06 -83.92L964.54 198.82" stroke="rgba(19, 46, 101, 0.1)" stroke-width="1.5"></path><path d="M1000.06 -83.92L851.66 190.71" stroke="rgba(19, 46, 101, 0.1)" stroke-width="1.5"></path><path d="M1000.06 -83.92L1126.23 242.07" stroke="rgba(19, 46, 101, 0.1)" stroke-width="1.5"></path><path d="M964.54 198.82L964.54 198.82" stroke="rgba(19, 46, 101, 0.1)" stroke-width="1.5"></path><path d="M964.54 198.82L1126.23 242.07" stroke="rgba(19, 46, 101, 0.1)" stroke-width="1.5"></path><path d="M964.54 198.82L974.71 403.63" stroke="rgba(19, 46, 101, 0.1)" stroke-width="1.5"></path><path d="M974.71 403.63L974.71 403.63" stroke="rgba(19, 46, 101, 0.1)" stroke-width="1.5"></path><path d="M974.71 403.63L978.18 552.68" stroke="rgba(19, 46, 101, 0.1)" stroke-width="1.5"></path><path d="M978.18 552.68L978.18 552.68" stroke="rgba(19, 46, 101, 0.1)" stroke-width="1.5"></path><path d="M978.18 552.68L1095.3 659.37" stroke="rgba(19, 46, 101, 0.1)" stroke-width="1.5"></path><path d="M978.18 552.68L1138.2 526.69" stroke="rgba(19, 46, 101, 0.1)" stroke-width="1.5"></path><path d="M962.67 814.25L962.67 814.25" stroke="rgba(19, 46, 101, 0.1)" stroke-width="1.5"></path><path d="M962.67 814.25L1146.24 799.86" stroke="rgba(19, 46, 101, 0.1)" stroke-width="1.5"></path><path d="M1135.65 -62.35L1135.65 -62.35" stroke="rgba(19, 46, 101, 0.1)" stroke-width="1.5"></path><path d="M1160.84 75.06L1160.84 75.06" stroke="rgba(19, 46, 101, 0.1)" stroke-width="1.5"></path><path d="M1160.84 75.06L1135.65 -62.35" stroke="rgba(19, 46, 101, 0.1)" stroke-width="1.5"></path><path d="M1160.84 75.06L1126.23 242.07" stroke="rgba(19, 46, 101, 0.1)" stroke-width="1.5"></path><path d="M1126.23 242.07L1126.23 242.07" stroke="rgba(19, 46, 101, 0.1)" stroke-width="1.5"></path><path d="M1126.23 242.07L1150.4 374.87" stroke="rgba(19, 46, 101, 0.1)" stroke-width="1.5"></path><path d="M1150.4 374.87L1150.4 374.87" stroke="rgba(19, 46, 101, 0.1)" stroke-width="1.5"></path><path d="M1150.4 374.87L1276.4 385.71" stroke="rgba(19, 46, 101, 0.1)" stroke-width="1.5"></path><path d="M1150.4 374.87L1138.2 526.69" stroke="rgba(19, 46, 101, 0.1)" stroke-width="1.5"></path><path d="M1150.4 374.87L974.71 403.63" stroke="rgba(19, 46, 101, 0.1)" stroke-width="1.5"></path><path d="M1138.2 526.69L1138.2 526.69" stroke="rgba(19, 46, 101, 0.1)" stroke-width="1.5"></path><path d="M1138.2 526.69L1259.59 542.08" stroke="rgba(19, 46, 101, 0.1)" stroke-width="1.5"></path><path d="M1138.2 526.69L1095.3 659.37" stroke="rgba(19, 46, 101, 0.1)" stroke-width="1.5"></path><path d="M1095.3 659.37L1095.3 659.37" stroke="rgba(19, 46, 101, 0.1)" stroke-width="1.5"></path><path d="M1095.3 659.37L1146.24 799.86" stroke="rgba(19, 46, 101, 0.1)" stroke-width="1.5"></path><path d="M1146.24 799.86L1146.24 799.86" stroke="rgba(19, 46, 101, 0.1)" stroke-width="1.5"></path><path d="M1146.24 799.86L1239.49 849.85" stroke="rgba(19, 46, 101, 0.1)" stroke-width="1.5"></path><path d="M1146.24 799.86L1249.69 687.41" stroke="rgba(19, 46, 101, 0.1)" stroke-width="1.5"></path><path d="M1276.4 385.71L1276.4 385.71" stroke="rgba(19, 46, 101, 0.1)" stroke-width="1.5"></path><path d="M1259.59 542.08L1259.59 542.08" stroke="rgba(19, 46, 101, 0.1)" stroke-width="1.5"></path><path d="M1259.59 542.08L1249.69 687.41" stroke="rgba(19, 46, 101, 0.1)" stroke-width="1.5"></path><path d="M1259.59 542.08L1276.4 385.71" stroke="rgba(19, 46, 101, 0.1)" stroke-width="1.5"></path><path d="M1259.59 542.08L1418.65 545.22" stroke="rgba(19, 46, 101, 0.1)" stroke-width="1.5"></path><path d="M1259.59 542.08L1150.4 374.87" stroke="rgba(19, 46, 101, 0.1)" stroke-width="1.5"></path><path d="M1259.59 542.08L1095.3 659.37" stroke="rgba(19, 46, 101, 0.1)" stroke-width="1.5"></path><path d="M1249.69 687.41L1249.69 687.41" stroke="rgba(19, 46, 101, 0.1)" stroke-width="1.5"></path><path d="M1239.49 849.85L1239.49 849.85" stroke="rgba(19, 46, 101, 0.1)" stroke-width="1.5"></path><path d="M1239.49 849.85L1249.69 687.41" stroke="rgba(19, 46, 101, 0.1)" stroke-width="1.5"></path><path d="M1239.49 849.85L1405.96 800.31" stroke="rgba(19, 46, 101, 0.1)" stroke-width="1.5"></path><path d="M1433.96 -55.42L1433.96 -55.42" stroke="rgba(19, 46, 101, 0.1)" stroke-width="1.5"></path><path d="M1433.96 -55.42L1569.67 -106.62" stroke="rgba(19, 46, 101, 0.1)" stroke-width="1.5"></path><path d="M1433.96 -55.42L1420.92 105.14" stroke="rgba(19, 46, 101, 0.1)" stroke-width="1.5"></path><path d="M1433.96 -55.42L1542.15 72.95" stroke="rgba(19, 46, 101, 0.1)" stroke-width="1.5"></path><path d="M1420.92 105.14L1420.92 105.14" stroke="rgba(19, 46, 101, 0.1)" stroke-width="1.5"></path><path d="M1420.92 105.14L1542.15 72.95" stroke="rgba(19, 46, 101, 0.1)" stroke-width="1.5"></path><path d="M1420.92 105.14L1393.83 257.38" stroke="rgba(19, 46, 101, 0.1)" stroke-width="1.5"></path><path d="M1393.83 257.38L1393.83 257.38" stroke="rgba(19, 46, 101, 0.1)" stroke-width="1.5"></path><path d="M1393.83 257.38L1430.05 355.32" stroke="rgba(19, 46, 101, 0.1)" stroke-width="1.5"></path><path d="M1430.05 355.32L1430.05 355.32" stroke="rgba(19, 46, 101, 0.1)" stroke-width="1.5"></path><path d="M1430.05 355.32L1568.71 345.2" stroke="rgba(19, 46, 101, 0.1)" stroke-width="1.5"></path><path d="M1430.05 355.32L1276.4 385.71" stroke="rgba(19, 46, 101, 0.1)" stroke-width="1.5"></path><path d="M1430.05 355.32L1418.65 545.22" stroke="rgba(19, 46, 101, 0.1)" stroke-width="1.5"></path><path d="M1430.05 355.32L1595.2 244.74" stroke="rgba(19, 46, 101, 0.1)" stroke-width="1.5"></path><path d="M1430.05 355.32L1544.38 558.14" stroke="rgba(19, 46, 101, 0.1)" stroke-width="1.5"></path><path d="M1418.65 545.22L1418.65 545.22" stroke="rgba(19, 46, 101, 0.1)" stroke-width="1.5"></path><path d="M1418.65 545.22L1544.38 558.14" stroke="rgba(19, 46, 101, 0.1)" stroke-width="1.5"></path><path d="M1418.65 545.22L1440.97 682.53" stroke="rgba(19, 46, 101, 0.1)" stroke-width="1.5"></path><path d="M1440.97 682.53L1440.97 682.53" stroke="rgba(19, 46, 101, 0.1)" stroke-width="1.5"></path><path d="M1440.97 682.53L1405.96 800.31" stroke="rgba(19, 46, 101, 0.1)" stroke-width="1.5"></path><path d="M1440.97 682.53L1544.38 558.14" stroke="rgba(19, 46, 101, 0.1)" stroke-width="1.5"></path><path d="M1440.97 682.53L1600.87 643.74" stroke="rgba(19, 46, 101, 0.1)" stroke-width="1.5"></path><path d="M1440.97 682.53L1249.69 687.41" stroke="rgba(19, 46, 101, 0.1)" stroke-width="1.5"></path><path d="M1405.96 800.31L1405.96 800.31" stroke="rgba(19, 46, 101, 0.1)" stroke-width="1.5"></path><path d="M1405.96 800.31L1561.86 837.4" stroke="rgba(19, 46, 101, 0.1)" stroke-width="1.5"></path><path d="M1569.67 -106.62L1569.67 -106.62" stroke="rgba(19, 46, 101, 0.1)" stroke-width="1.5"></path><path d="M1569.67 -106.62L1542.15 72.95" stroke="rgba(19, 46, 101, 0.1)" stroke-width="1.5"></path><path d="M1569.67 -106.62L1420.92 105.14" stroke="rgba(19, 46, 101, 0.1)" stroke-width="1.5"></path><path d="M1542.15 72.95L1542.15 72.95" stroke="rgba(19, 46, 101, 0.1)" stroke-width="1.5"></path><path d="M1542.15 72.95L1595.2 244.74" stroke="rgba(19, 46, 101, 0.1)" stroke-width="1.5"></path><path d="M1542.15 72.95L1393.83 257.38" stroke="rgba(19, 46, 101, 0.1)" stroke-width="1.5"></path><path d="M1595.2 244.74L1595.2 244.74" stroke="rgba(19, 46, 101, 0.1)" stroke-width="1.5"></path><path d="M1595.2 244.74L1568.71 345.2" stroke="rgba(19, 46, 101, 0.1)" stroke-width="1.5"></path><path d="M1568.71 345.2L1568.71 345.2" stroke="rgba(19, 46, 101, 0.1)" stroke-width="1.5"></path><path d="M1568.71 345.2L1393.83 257.38" stroke="rgba(19, 46, 101, 0.1)" stroke-width="1.5"></path><path d="M1568.71 345.2L1544.38 558.14" stroke="rgba(19, 46, 101, 0.1)" stroke-width="1.5"></path><path d="M1568.71 345.2L1418.65 545.22" stroke="rgba(19, 46, 101, 0.1)" stroke-width="1.5"></path><path d="M1568.71 345.2L1542.15 72.95" stroke="rgba(19, 46, 101, 0.1)" stroke-width="1.5"></path><path d="M1544.38 558.14L1544.38 558.14" stroke="rgba(19, 46, 101, 0.1)" stroke-width="1.5"></path><path d="M1544.38 558.14L1600.87 643.74" stroke="rgba(19, 46, 101, 0.1)" stroke-width="1.5"></path><path d="M1600.87 643.74L1600.87 643.74" stroke="rgba(19, 46, 101, 0.1)" stroke-width="1.5"></path><path d="M1600.87 643.74L1561.86 837.4" stroke="rgba(19, 46, 101, 0.1)" stroke-width="1.5"></path><path d="M1561.86 837.4L1561.86 837.4" stroke="rgba(19, 46, 101, 0.1)" stroke-width="1.5"></path><path d="M1561.86 837.4L1440.97 682.53" stroke="rgba(19, 46, 101, 0.1)" stroke-width="1.5"></path><path d="M1561.86 837.4L1544.38 558.14" stroke="rgba(19, 46, 101, 0.1)" stroke-width="1.5"></path><path d="M1561.86 837.4L1239.49 849.85" stroke="rgba(19, 46, 101, 0.1)" stroke-width="1.5"></path><circle r="5" cx="-106.02" cy="517.05" fill="rgba(19, 46, 101, 0.1)"></circle><circle r="5" cx="-98.8" cy="700.82" fill="rgba(19, 46, 101, 0.1)"></circle><circle r="5" cx="-48.67" cy="797.12" fill="rgba(19, 46, 101, 0.1)"></circle><circle r="5" cx="69.52" cy="398.63" fill="rgba(19, 46, 101, 0.1)"></circle><circle r="5" cx="50.53" cy="506.84" fill="rgba(19, 46, 101, 0.1)"></circle><circle r="5" cx="46.58" cy="677.37" fill="rgba(19, 46, 101, 0.1)"></circle><circle r="5" cx="99.2" cy="856.74" fill="rgba(19, 46, 101, 0.1)"></circle><circle r="5" cx="235.19" cy="376.85" fill="rgba(19, 46, 101, 0.1)"></circle><circle r="5" cx="260.93" cy="535.62" fill="rgba(19, 46, 101, 0.1)"></circle><circle r="5" cx="241.33" cy="701.81" fill="rgba(19, 46, 101, 0.1)"></circle><circle r="5" cx="216.34" cy="860.69" fill="rgba(19, 46, 101, 0.1)"></circle><circle r="5" cx="361.55" cy="409.28" fill="rgba(19, 46, 101, 0.1)"></circle><circle r="5" cx="361.31" cy="503.44" fill="rgba(19, 46, 101, 0.1)"></circle><circle r="5" cx="382.62" cy="643.82" fill="rgba(19, 46, 101, 0.1)"></circle><circle r="5" cx="411.98" cy="837.76" fill="rgba(19, 46, 101, 0.1)"></circle><circle r="5" cx="526.68" cy="373.39" fill="rgba(19, 46, 101, 0.1)"></circle><circle r="5" cx="545.8" cy="547.71" fill="rgba(19, 46, 101, 0.1)"></circle><circle r="5" cx="509.69" cy="647.74" fill="rgba(19, 46, 101, 0.1)"></circle><circle r="5" cx="557.77" cy="841.05" fill="rgba(19, 46, 101, 0.1)"></circle><circle r="5" cx="684.52" cy="246.48" fill="rgba(19, 46, 101, 0.1)"></circle><circle r="5" cx="666.14" cy="354.21" fill="rgba(19, 46, 101, 0.1)"></circle><circle r="5" cx="645.93" cy="535.56" fill="rgba(19, 46, 101, 0.1)"></circle><circle r="5" cx="660.44" cy="705.05" fill="rgba(19, 46, 101, 0.1)"></circle><circle r="5" cx="676.71" cy="829.5" fill="rgba(19, 46, 101, 0.1)"></circle><circle r="5" cx="851.66" cy="190.71" fill="rgba(19, 46, 101, 0.1)"></circle><circle r="5" cx="859.03" cy="340.96" fill="rgba(19, 46, 101, 0.1)"></circle><circle r="5" cx="807.54" cy="506.56" fill="rgba(19, 46, 101, 0.1)"></circle><circle r="5" cx="841.33" cy="674.99" fill="rgba(19, 46, 101, 0.1)"></circle><circle r="5" cx="860.77" cy="792.25" fill="rgba(19, 46, 101, 0.1)"></circle><circle r="5" cx="1000.06" cy="-83.92" fill="rgba(19, 46, 101, 0.1)"></circle><circle r="5" cx="964.54" cy="198.82" fill="rgba(19, 46, 101, 0.1)"></circle><circle r="5" cx="974.71" cy="403.63" fill="rgba(19, 46, 101, 0.1)"></circle><circle r="5" cx="978.18" cy="552.68" fill="rgba(19, 46, 101, 0.1)"></circle><circle r="5" cx="962.67" cy="814.25" fill="rgba(19, 46, 101, 0.1)"></circle><circle r="5" cx="1135.65" cy="-62.35" fill="rgba(19, 46, 101, 0.1)"></circle><circle r="5" cx="1160.84" cy="75.06" fill="rgba(19, 46, 101, 0.1)"></circle><circle r="5" cx="1126.23" cy="242.07" fill="rgba(19, 46, 101, 0.1)"></circle><circle r="5" cx="1150.4" cy="374.87" fill="rgba(19, 46, 101, 0.1)"></circle><circle r="5" cx="1138.2" cy="526.69" fill="rgba(19, 46, 101, 0.1)"></circle><circle r="5" cx="1095.3" cy="659.37" fill="rgba(19, 46, 101, 0.1)"></circle><circle r="5" cx="1146.24" cy="799.86" fill="rgba(19, 46, 101, 0.1)"></circle><circle r="5" cx="1276.4" cy="385.71" fill="rgba(19, 46, 101, 0.1)"></circle><circle r="5" cx="1259.59" cy="542.08" fill="rgba(19, 46, 101, 0.1)"></circle><circle r="5" cx="1249.69" cy="687.41" fill="rgba(19, 46, 101, 0.1)"></circle><circle r="5" cx="1239.49" cy="849.85" fill="rgba(19, 46, 101, 0.1)"></circle><circle r="5" cx="1433.96" cy="-55.42" fill="rgba(19, 46, 101, 0.1)"></circle><circle r="5" cx="1420.92" cy="105.14" fill="rgba(19, 46, 101, 0.1)"></circle><circle r="5" cx="1393.83" cy="257.38" fill="rgba(19, 46, 101, 0.1)"></circle><circle r="5" cx="1430.05" cy="355.32" fill="rgba(19, 46, 101, 0.1)"></circle><circle r="5" cx="1418.65" cy="545.22" fill="rgba(19, 46, 101, 0.1)"></circle><circle r="5" cx="1440.97" cy="682.53" fill="rgba(19, 46, 101, 0.1)"></circle><circle r="5" cx="1405.96" cy="800.31" fill="rgba(19, 46, 101, 0.1)"></circle><circle r="5" cx="1569.67" cy="-106.62" fill="rgba(19, 46, 101, 0.1)"></circle><circle r="5" cx="1542.15" cy="72.95" fill="rgba(19, 46, 101, 0.1)"></circle><circle r="5" cx="1595.2" cy="244.74" fill="rgba(19, 46, 101, 0.1)"></circle><circle r="5" cx="1568.71" cy="345.2" fill="rgba(19, 46, 101, 0.1)"></circle><circle r="5" cx="1544.38" cy="558.14" fill="rgba(19, 46, 101, 0.1)"></circle><circle r="5" cx="1600.87" cy="643.74" fill="rgba(19, 46, 101, 0.1)"></circle><circle r="5" cx="1561.86" cy="837.4" fill="rgba(19, 46, 101, 0.1)"></circle><path d="M73.5 845.29L73.5 845.29" stroke="hsla(228.5, 77.2%, 51.5%, 0.1)" stroke-width="1.5"></path><path d="M73.5 845.29L102.81 695.82" stroke="hsla(228.5, 77.2%, 51.5%, 0.1)" stroke-width="1.5"></path><path d="M73.5 845.29L-72.2 792.95" stroke="hsla(228.5, 77.2%, 51.5%, 0.1)" stroke-width="1.5"></path><path d="M201.58 644.38L201.58 644.38" stroke="hsla(228.5, 77.2%, 51.5%, 0.1)" stroke-width="1.5"></path><path d="M201.58 644.38L240.62 552.21" stroke="hsla(228.5, 77.2%, 51.5%, 0.1)" stroke-width="1.5"></path><path d="M201.58 644.38L102.81 695.82" stroke="hsla(228.5, 77.2%, 51.5%, 0.1)" stroke-width="1.5"></path><path d="M201.58 644.38L44.99 538.74" stroke="hsla(228.5, 77.2%, 51.5%, 0.1)" stroke-width="1.5"></path><path d="M201.58 644.38L246.45 828.06" stroke="hsla(228.5, 77.2%, 51.5%, 0.1)" stroke-width="1.5"></path><path d="M201.58 644.38L390.23 678.32" stroke="hsla(228.5, 77.2%, 51.5%, 0.1)" stroke-width="1.5"></path><path d="M201.58 644.38L358.94 517.39" stroke="hsla(228.5, 77.2%, 51.5%, 0.1)" stroke-width="1.5"></path><path d="M693.18 807.05L693.18 807.05" stroke="hsla(228.5, 77.2%, 51.5%, 0.1)" stroke-width="1.5"></path><path d="M693.18 807.05L694.52 643.76" stroke="hsla(228.5, 77.2%, 51.5%, 0.1)" stroke-width="1.5"></path><path d="M693.18 807.05L835.58 695.11" stroke="hsla(228.5, 77.2%, 51.5%, 0.1)" stroke-width="1.5"></path><path d="M693.18 807.05L506.8 811.25" stroke="hsla(228.5, 77.2%, 51.5%, 0.1)" stroke-width="1.5"></path><path d="M693.18 807.05L518.73 667.33" stroke="hsla(228.5, 77.2%, 51.5%, 0.1)" stroke-width="1.5"></path><path d="M693.18 807.05L791.53 547.75" stroke="hsla(228.5, 77.2%, 51.5%, 0.1)" stroke-width="1.5"></path><path d="M693.18 807.05L408.34 801.04" stroke="hsla(228.5, 77.2%, 51.5%, 0.1)" stroke-width="1.5"></path><path d="M791.53 547.75L791.53 547.75" stroke="hsla(228.5, 77.2%, 51.5%, 0.1)" stroke-width="1.5"></path><path d="M791.53 547.75L670.83 509.81" stroke="hsla(228.5, 77.2%, 51.5%, 0.1)" stroke-width="1.5"></path><path d="M791.53 547.75L694.52 643.76" stroke="hsla(228.5, 77.2%, 51.5%, 0.1)" stroke-width="1.5"></path><path d="M835.58 695.11L835.58 695.11" stroke="hsla(228.5, 77.2%, 51.5%, 0.1)" stroke-width="1.5"></path><path d="M835.58 695.11L962.26 681.79" stroke="hsla(228.5, 77.2%, 51.5%, 0.1)" stroke-width="1.5"></path><path d="M835.58 695.11L694.52 643.76" stroke="hsla(228.5, 77.2%, 51.5%, 0.1)" stroke-width="1.5"></path><path d="M835.58 695.11L791.53 547.75" stroke="hsla(228.5, 77.2%, 51.5%, 0.1)" stroke-width="1.5"></path><path d="M835.58 695.11L962.26 547.54" stroke="hsla(228.5, 77.2%, 51.5%, 0.1)" stroke-width="1.5"></path><path d="M1093.35 533.58L1093.35 533.58" stroke="hsla(228.5, 77.2%, 51.5%, 0.1)" stroke-width="1.5"></path><path d="M1093.35 533.58L1096.94 649.3" stroke="hsla(228.5, 77.2%, 51.5%, 0.1)" stroke-width="1.5"></path><path d="M1093.35 533.58L962.26 547.54" stroke="hsla(228.5, 77.2%, 51.5%, 0.1)" stroke-width="1.5"></path><path d="M1093.35 533.58L1111.85 400.87" stroke="hsla(228.5, 77.2%, 51.5%, 0.1)" stroke-width="1.5"></path><path d="M1093.35 533.58L962.26 681.79" stroke="hsla(228.5, 77.2%, 51.5%, 0.1)" stroke-width="1.5"></path><path d="M1096.94 649.3L1096.94 649.3" stroke="hsla(228.5, 77.2%, 51.5%, 0.1)" stroke-width="1.5"></path><path d="M1096.94 649.3L962.26 681.79" stroke="hsla(228.5, 77.2%, 51.5%, 0.1)" stroke-width="1.5"></path><path d="M1096.94 649.3L1259.08 646.2" stroke="hsla(228.5, 77.2%, 51.5%, 0.1)" stroke-width="1.5"></path><path d="M1096.94 649.3L962.26 547.54" stroke="hsla(228.5, 77.2%, 51.5%, 0.1)" stroke-width="1.5"></path><path d="M1096.94 649.3L1159.48 834.12" stroke="hsla(228.5, 77.2%, 51.5%, 0.1)" stroke-width="1.5"></path><path d="M1159.48 834.12L1159.48 834.12" stroke="hsla(228.5, 77.2%, 51.5%, 0.1)" stroke-width="1.5"></path><path d="M1159.48 834.12L1283.86 844.29" stroke="hsla(228.5, 77.2%, 51.5%, 0.1)" stroke-width="1.5"></path><path d="M1159.48 834.12L1259.08 646.2" stroke="hsla(228.5, 77.2%, 51.5%, 0.1)" stroke-width="1.5"></path><path d="M1610.24 552.32L1610.24 552.32" stroke="hsla(228.5, 77.2%, 51.5%, 0.1)" stroke-width="1.5"></path><path d="M1610.24 552.32L1592.58 389.55" stroke="hsla(228.5, 77.2%, 51.5%, 0.1)" stroke-width="1.5"></path><path d="M1610.24 552.32L1394.45 559.31" stroke="hsla(228.5, 77.2%, 51.5%, 0.1)" stroke-width="1.5"></path><path d="M1610.24 552.32L1424.16 700.17" stroke="hsla(228.5, 77.2%, 51.5%, 0.1)" stroke-width="1.5"></path><path d="M1610.24 552.32L1430.98 346.73" stroke="hsla(228.5, 77.2%, 51.5%, 0.1)" stroke-width="1.5"></path><path d="M1610.24 552.32L1568.65 861.96" stroke="hsla(228.5, 77.2%, 51.5%, 0.1)" stroke-width="1.5"></path><path d="M1610.24 552.32L1600.8 219.5" stroke="hsla(228.5, 77.2%, 51.5%, 0.1)" stroke-width="1.5"></path><path d="M-43.08 522.27L-43.08 522.27" stroke="hsla(228.5, 77.2%, 51.5%, 0.1)" stroke-width="1.5"></path><path d="M-43.08 522.27L44.99 538.74" stroke="hsla(228.5, 77.2%, 51.5%, 0.1)" stroke-width="1.5"></path><path d="M-43.08 522.27L-74.57 703.59" stroke="hsla(228.5, 77.2%, 51.5%, 0.1)" stroke-width="1.5"></path><path d="M-43.08 522.27L102.81 695.82" stroke="hsla(228.5, 77.2%, 51.5%, 0.1)" stroke-width="1.5"></path><path d="M-43.08 522.27L-72.2 792.95" stroke="hsla(228.5, 77.2%, 51.5%, 0.1)" stroke-width="1.5"></path><path d="M-43.08 522.27L201.58 644.38" stroke="hsla(228.5, 77.2%, 51.5%, 0.1)" stroke-width="1.5"></path><path d="M-74.57 703.59L-74.57 703.59" stroke="hsla(228.5, 77.2%, 51.5%, 0.1)" stroke-width="1.5"></path><path d="M-74.57 703.59L-72.2 792.95" stroke="hsla(228.5, 77.2%, 51.5%, 0.1)" stroke-width="1.5"></path><path d="M-74.57 703.59L102.81 695.82" stroke="hsla(228.5, 77.2%, 51.5%, 0.1)" stroke-width="1.5"></path><path d="M-72.2 792.95L-72.2 792.95" stroke="hsla(228.5, 77.2%, 51.5%, 0.1)" stroke-width="1.5"></path><path d="M-72.2 792.95L102.81 695.82" stroke="hsla(228.5, 77.2%, 51.5%, 0.1)" stroke-width="1.5"></path><path d="M-72.2 792.95L44.99 538.74" stroke="hsla(228.5, 77.2%, 51.5%, 0.1)" stroke-width="1.5"></path><path d="M44.99 538.74L44.99 538.74" stroke="hsla(228.5, 77.2%, 51.5%, 0.1)" stroke-width="1.5"></path><path d="M44.99 538.74L102.81 695.82" stroke="hsla(228.5, 77.2%, 51.5%, 0.1)" stroke-width="1.5"></path><path d="M44.99 538.74L240.62 552.21" stroke="hsla(228.5, 77.2%, 51.5%, 0.1)" stroke-width="1.5"></path><path d="M44.99 538.74L-74.57 703.59" stroke="hsla(228.5, 77.2%, 51.5%, 0.1)" stroke-width="1.5"></path><path d="M102.81 695.82L102.81 695.82" stroke="hsla(228.5, 77.2%, 51.5%, 0.1)" stroke-width="1.5"></path><path d="M102.81 695.82L246.45 828.06" stroke="hsla(228.5, 77.2%, 51.5%, 0.1)" stroke-width="1.5"></path><path d="M240.62 552.21L240.62 552.21" stroke="hsla(228.5, 77.2%, 51.5%, 0.1)" stroke-width="1.5"></path><path d="M240.62 552.21L358.94 517.39" stroke="hsla(228.5, 77.2%, 51.5%, 0.1)" stroke-width="1.5"></path><path d="M240.62 552.21L390.23 678.32" stroke="hsla(228.5, 77.2%, 51.5%, 0.1)" stroke-width="1.5"></path><path d="M246.45 828.06L246.45 828.06" stroke="hsla(228.5, 77.2%, 51.5%, 0.1)" stroke-width="1.5"></path><path d="M246.45 828.06L408.34 801.04" stroke="hsla(228.5, 77.2%, 51.5%, 0.1)" stroke-width="1.5"></path><path d="M246.45 828.06L73.5 845.29" stroke="hsla(228.5, 77.2%, 51.5%, 0.1)" stroke-width="1.5"></path><path d="M358.94 517.39L358.94 517.39" stroke="hsla(228.5, 77.2%, 51.5%, 0.1)" stroke-width="1.5"></path><path d="M358.94 517.39L496.74 529.37" stroke="hsla(228.5, 77.2%, 51.5%, 0.1)" stroke-width="1.5"></path><path d="M358.94 517.39L390.23 678.32" stroke="hsla(228.5, 77.2%, 51.5%, 0.1)" stroke-width="1.5"></path><path d="M390.23 678.32L390.23 678.32" stroke="hsla(228.5, 77.2%, 51.5%, 0.1)" stroke-width="1.5"></path><path d="M390.23 678.32L408.34 801.04" stroke="hsla(228.5, 77.2%, 51.5%, 0.1)" stroke-width="1.5"></path><path d="M390.23 678.32L518.73 667.33" stroke="hsla(228.5, 77.2%, 51.5%, 0.1)" stroke-width="1.5"></path><path d="M390.23 678.32L506.8 811.25" stroke="hsla(228.5, 77.2%, 51.5%, 0.1)" stroke-width="1.5"></path><path d="M390.23 678.32L496.74 529.37" stroke="hsla(228.5, 77.2%, 51.5%, 0.1)" stroke-width="1.5"></path><path d="M408.34 801.04L408.34 801.04" stroke="hsla(228.5, 77.2%, 51.5%, 0.1)" stroke-width="1.5"></path><path d="M408.34 801.04L506.8 811.25" stroke="hsla(228.5, 77.2%, 51.5%, 0.1)" stroke-width="1.5"></path><path d="M408.34 801.04L518.73 667.33" stroke="hsla(228.5, 77.2%, 51.5%, 0.1)" stroke-width="1.5"></path><path d="M408.34 801.04L201.58 644.38" stroke="hsla(228.5, 77.2%, 51.5%, 0.1)" stroke-width="1.5"></path><path d="M496.74 529.37L496.74 529.37" stroke="hsla(228.5, 77.2%, 51.5%, 0.1)" stroke-width="1.5"></path><path d="M496.74 529.37L518.73 667.33" stroke="hsla(228.5, 77.2%, 51.5%, 0.1)" stroke-width="1.5"></path><path d="M496.74 529.37L670.83 509.81" stroke="hsla(228.5, 77.2%, 51.5%, 0.1)" stroke-width="1.5"></path><path d="M496.74 529.37L694.52 643.76" stroke="hsla(228.5, 77.2%, 51.5%, 0.1)" stroke-width="1.5"></path><path d="M518.73 667.33L518.73 667.33" stroke="hsla(228.5, 77.2%, 51.5%, 0.1)" stroke-width="1.5"></path><path d="M506.8 811.25L506.8 811.25" stroke="hsla(228.5, 77.2%, 51.5%, 0.1)" stroke-width="1.5"></path><path d="M506.8 811.25L518.73 667.33" stroke="hsla(228.5, 77.2%, 51.5%, 0.1)" stroke-width="1.5"></path><path d="M506.8 811.25L694.52 643.76" stroke="hsla(228.5, 77.2%, 51.5%, 0.1)" stroke-width="1.5"></path><path d="M670.83 509.81L670.83 509.81" stroke="hsla(228.5, 77.2%, 51.5%, 0.1)" stroke-width="1.5"></path><path d="M670.83 509.81L694.52 643.76" stroke="hsla(228.5, 77.2%, 51.5%, 0.1)" stroke-width="1.5"></path><path d="M670.83 509.81L850.68 403.21" stroke="hsla(228.5, 77.2%, 51.5%, 0.1)" stroke-width="1.5"></path><path d="M694.52 643.76L694.52 643.76" stroke="hsla(228.5, 77.2%, 51.5%, 0.1)" stroke-width="1.5"></path><path d="M694.52 643.76L518.73 667.33" stroke="hsla(228.5, 77.2%, 51.5%, 0.1)" stroke-width="1.5"></path><path d="M850.68 403.21L850.68 403.21" stroke="hsla(228.5, 77.2%, 51.5%, 0.1)" stroke-width="1.5"></path><path d="M850.68 403.21L791.53 547.75" stroke="hsla(228.5, 77.2%, 51.5%, 0.1)" stroke-width="1.5"></path><path d="M850.68 403.21L1002.03 347.27" stroke="hsla(228.5, 77.2%, 51.5%, 0.1)" stroke-width="1.5"></path><path d="M850.68 403.21L962.26 547.54" stroke="hsla(228.5, 77.2%, 51.5%, 0.1)" stroke-width="1.5"></path><path d="M1002.03 347.27L1002.03 347.27" stroke="hsla(228.5, 77.2%, 51.5%, 0.1)" stroke-width="1.5"></path><path d="M1002.03 347.27L1111.85 400.87" stroke="hsla(228.5, 77.2%, 51.5%, 0.1)" stroke-width="1.5"></path><path d="M1002.03 347.27L1097.17 261.61" stroke="hsla(228.5, 77.2%, 51.5%, 0.1)" stroke-width="1.5"></path><path d="M1002.03 347.27L962.26 547.54" stroke="hsla(228.5, 77.2%, 51.5%, 0.1)" stroke-width="1.5"></path><path d="M1002.03 347.27L1093.35 533.58" stroke="hsla(228.5, 77.2%, 51.5%, 0.1)" stroke-width="1.5"></path><path d="M1002.03 347.27L1240.87 194.96" stroke="hsla(228.5, 77.2%, 51.5%, 0.1)" stroke-width="1.5"></path><path d="M962.26 547.54L962.26 547.54" stroke="hsla(228.5, 77.2%, 51.5%, 0.1)" stroke-width="1.5"></path><path d="M962.26 547.54L962.26 681.79" stroke="hsla(228.5, 77.2%, 51.5%, 0.1)" stroke-width="1.5"></path><path d="M962.26 547.54L791.53 547.75" stroke="hsla(228.5, 77.2%, 51.5%, 0.1)" stroke-width="1.5"></path><path d="M962.26 681.79L962.26 681.79" stroke="hsla(228.5, 77.2%, 51.5%, 0.1)" stroke-width="1.5"></path><path d="M962.26 681.79L791.53 547.75" stroke="hsla(228.5, 77.2%, 51.5%, 0.1)" stroke-width="1.5"></path><path d="M1097.17 261.61L1097.17 261.61" stroke="hsla(228.5, 77.2%, 51.5%, 0.1)" stroke-width="1.5"></path><path d="M1097.17 261.61L1111.85 400.87" stroke="hsla(228.5, 77.2%, 51.5%, 0.1)" stroke-width="1.5"></path><path d="M1111.85 400.87L1111.85 400.87" stroke="hsla(228.5, 77.2%, 51.5%, 0.1)" stroke-width="1.5"></path><path d="M1258.57 41.9L1258.57 41.9" stroke="hsla(228.5, 77.2%, 51.5%, 0.1)" stroke-width="1.5"></path><path d="M1258.57 41.9L1240.87 194.96" stroke="hsla(228.5, 77.2%, 51.5%, 0.1)" stroke-width="1.5"></path><path d="M1258.57 41.9L1394.77 -79.43" stroke="hsla(228.5, 77.2%, 51.5%, 0.1)" stroke-width="1.5"></path><path d="M1258.57 41.9L1449.05 94.61" stroke="hsla(228.5, 77.2%, 51.5%, 0.1)" stroke-width="1.5"></path><path d="M1240.87 194.96L1240.87 194.96" stroke="hsla(228.5, 77.2%, 51.5%, 0.1)" stroke-width="1.5"></path><path d="M1240.87 194.96L1388.66 202.63" stroke="hsla(228.5, 77.2%, 51.5%, 0.1)" stroke-width="1.5"></path><path d="M1259.08 646.2L1259.08 646.2" stroke="hsla(228.5, 77.2%, 51.5%, 0.1)" stroke-width="1.5"></path><path d="M1259.08 646.2L1394.45 559.31" stroke="hsla(228.5, 77.2%, 51.5%, 0.1)" stroke-width="1.5"></path><path d="M1259.08 646.2L1424.16 700.17" stroke="hsla(228.5, 77.2%, 51.5%, 0.1)" stroke-width="1.5"></path><path d="M1283.86 844.29L1283.86 844.29" stroke="hsla(228.5, 77.2%, 51.5%, 0.1)" stroke-width="1.5"></path><path d="M1283.86 844.29L1390.7 815.64" stroke="hsla(228.5, 77.2%, 51.5%, 0.1)" stroke-width="1.5"></path><path d="M1394.77 -79.43L1394.77 -79.43" stroke="hsla(228.5, 77.2%, 51.5%, 0.1)" stroke-width="1.5"></path><path d="M1394.77 -79.43L1549.01 -62.22" stroke="hsla(228.5, 77.2%, 51.5%, 0.1)" stroke-width="1.5"></path><path d="M1394.77 -79.43L1449.05 94.61" stroke="hsla(228.5, 77.2%, 51.5%, 0.1)" stroke-width="1.5"></path><path d="M1394.77 -79.43L1569.83 47.87" stroke="hsla(228.5, 77.2%, 51.5%, 0.1)" stroke-width="1.5"></path><path d="M1394.77 -79.43L1388.66 202.63" stroke="hsla(228.5, 77.2%, 51.5%, 0.1)" stroke-width="1.5"></path><path d="M1449.05 94.61L1449.05 94.61" stroke="hsla(228.5, 77.2%, 51.5%, 0.1)" stroke-width="1.5"></path><path d="M1449.05 94.61L1388.66 202.63" stroke="hsla(228.5, 77.2%, 51.5%, 0.1)" stroke-width="1.5"></path><path d="M1449.05 94.61L1569.83 47.87" stroke="hsla(228.5, 77.2%, 51.5%, 0.1)" stroke-width="1.5"></path><path d="M1449.05 94.61L1549.01 -62.22" stroke="hsla(228.5, 77.2%, 51.5%, 0.1)" stroke-width="1.5"></path><path d="M1449.05 94.61L1600.8 219.5" stroke="hsla(228.5, 77.2%, 51.5%, 0.1)" stroke-width="1.5"></path><path d="M1388.66 202.63L1388.66 202.63" stroke="hsla(228.5, 77.2%, 51.5%, 0.1)" stroke-width="1.5"></path><path d="M1388.66 202.63L1430.98 346.73" stroke="hsla(228.5, 77.2%, 51.5%, 0.1)" stroke-width="1.5"></path><path d="M1388.66 202.63L1258.57 41.9" stroke="hsla(228.5, 77.2%, 51.5%, 0.1)" stroke-width="1.5"></path><path d="M1430.98 346.73L1430.98 346.73" stroke="hsla(228.5, 77.2%, 51.5%, 0.1)" stroke-width="1.5"></path><path d="M1430.98 346.73L1592.58 389.55" stroke="hsla(228.5, 77.2%, 51.5%, 0.1)" stroke-width="1.5"></path><path d="M1430.98 346.73L1600.8 219.5" stroke="hsla(228.5, 77.2%, 51.5%, 0.1)" stroke-width="1.5"></path><path d="M1394.45 559.31L1394.45 559.31" stroke="hsla(228.5, 77.2%, 51.5%, 0.1)" stroke-width="1.5"></path><path d="M1394.45 559.31L1424.16 700.17" stroke="hsla(228.5, 77.2%, 51.5%, 0.1)" stroke-width="1.5"></path><path d="M1424.16 700.17L1424.16 700.17" stroke="hsla(228.5, 77.2%, 51.5%, 0.1)" stroke-width="1.5"></path><path d="M1424.16 700.17L1390.7 815.64" stroke="hsla(228.5, 77.2%, 51.5%, 0.1)" stroke-width="1.5"></path><path d="M1390.7 815.64L1390.7 815.64" stroke="hsla(228.5, 77.2%, 51.5%, 0.1)" stroke-width="1.5"></path><path d="M1390.7 815.64L1568.65 861.96" stroke="hsla(228.5, 77.2%, 51.5%, 0.1)" stroke-width="1.5"></path><path d="M1390.7 815.64L1259.08 646.2" stroke="hsla(228.5, 77.2%, 51.5%, 0.1)" stroke-width="1.5"></path><path d="M1390.7 815.64L1159.48 834.12" stroke="hsla(228.5, 77.2%, 51.5%, 0.1)" stroke-width="1.5"></path><path d="M1390.7 815.64L1394.45 559.31" stroke="hsla(228.5, 77.2%, 51.5%, 0.1)" stroke-width="1.5"></path><path d="M1549.01 -62.22L1549.01 -62.22" stroke="hsla(228.5, 77.2%, 51.5%, 0.1)" stroke-width="1.5"></path><path d="M1549.01 -62.22L1569.83 47.87" stroke="hsla(228.5, 77.2%, 51.5%, 0.1)" stroke-width="1.5"></path><path d="M1549.01 -62.22L1600.8 219.5" stroke="hsla(228.5, 77.2%, 51.5%, 0.1)" stroke-width="1.5"></path><path d="M1549.01 -62.22L1258.57 41.9" stroke="hsla(228.5, 77.2%, 51.5%, 0.1)" stroke-width="1.5"></path><path d="M1549.01 -62.22L1388.66 202.63" stroke="hsla(228.5, 77.2%, 51.5%, 0.1)" stroke-width="1.5"></path><path d="M1569.83 47.87L1569.83 47.87" stroke="hsla(228.5, 77.2%, 51.5%, 0.1)" stroke-width="1.5"></path><path d="M1569.83 47.87L1600.8 219.5" stroke="hsla(228.5, 77.2%, 51.5%, 0.1)" stroke-width="1.5"></path><path d="M1569.83 47.87L1388.66 202.63" stroke="hsla(228.5, 77.2%, 51.5%, 0.1)" stroke-width="1.5"></path><path d="M1600.8 219.5L1600.8 219.5" stroke="hsla(228.5, 77.2%, 51.5%, 0.1)" stroke-width="1.5"></path><path d="M1600.8 219.5L1592.58 389.55" stroke="hsla(228.5, 77.2%, 51.5%, 0.1)" stroke-width="1.5"></path><path d="M1600.8 219.5L1388.66 202.63" stroke="hsla(228.5, 77.2%, 51.5%, 0.1)" stroke-width="1.5"></path><path d="M1592.58 389.55L1592.58 389.55" stroke="hsla(228.5, 77.2%, 51.5%, 0.1)" stroke-width="1.5"></path><path d="M1592.58 389.55L1394.45 559.31" stroke="hsla(228.5, 77.2%, 51.5%, 0.1)" stroke-width="1.5"></path><path d="M1592.58 389.55L1388.66 202.63" stroke="hsla(228.5, 77.2%, 51.5%, 0.1)" stroke-width="1.5"></path><path d="M1592.58 389.55L1449.05 94.61" stroke="hsla(228.5, 77.2%, 51.5%, 0.1)" stroke-width="1.5"></path><path d="M1568.65 861.96L1568.65 861.96" stroke="hsla(228.5, 77.2%, 51.5%, 0.1)" stroke-width="1.5"></path><path d="M1568.65 861.96L1424.16 700.17" stroke="hsla(228.5, 77.2%, 51.5%, 0.1)" stroke-width="1.5"></path><circle r="25" cx="73.5" cy="845.29" fill="url(&quot;#SvgjsRadialGradient2917&quot;)"></circle><circle r="25" cx="201.58" cy="644.38" fill="url(&quot;#SvgjsRadialGradient2917&quot;)"></circle><circle r="25" cx="693.18" cy="807.05" fill="url(&quot;#SvgjsRadialGradient2917&quot;)"></circle><circle r="25" cx="791.53" cy="547.75" fill="url(&quot;#SvgjsRadialGradient2917&quot;)"></circle><circle r="25" cx="835.58" cy="695.11" fill="url(&quot;#SvgjsRadialGradient2917&quot;)"></circle><circle r="25" cx="1093.35" cy="533.58" fill="url(&quot;#SvgjsRadialGradient2917&quot;)"></circle><circle r="25" cx="1096.94" cy="649.3" fill="url(&quot;#SvgjsRadialGradient2917&quot;)"></circle><circle r="25" cx="1159.48" cy="834.12" fill="url(&quot;#SvgjsRadialGradient2917&quot;)"></circle><circle r="25" cx="1610.24" cy="552.32" fill="url(&quot;#SvgjsRadialGradient2917&quot;)"></circle><circle r="5" cx="-43.08" cy="522.27" fill="rgba(243, 245, 251, 0.55)"></circle><circle r="5" cx="-74.57" cy="703.59" fill="rgba(243, 245, 251, 0.55)"></circle><circle r="5" cx="-72.2" cy="792.95" fill="rgba(243, 245, 251, 0.55)"></circle><circle r="5" cx="44.99" cy="538.74" fill="rgba(243, 245, 251, 0.55)"></circle><circle r="5" cx="102.81" cy="695.82" fill="rgba(243, 245, 251, 0.55)"></circle><circle r="5" cx="240.62" cy="552.21" fill="rgba(243, 245, 251, 0.55)"></circle><circle r="5" cx="246.45" cy="828.06" fill="rgba(243, 245, 251, 0.55)"></circle><circle r="5" cx="358.94" cy="517.39" fill="rgba(243, 245, 251, 0.55)"></circle><circle r="5" cx="390.23" cy="678.32" fill="rgba(243, 245, 251, 0.55)"></circle><circle r="5" cx="408.34" cy="801.04" fill="rgba(243, 245, 251, 0.55)"></circle><circle r="5" cx="496.74" cy="529.37" fill="rgba(243, 245, 251, 0.55)"></circle><circle r="5" cx="518.73" cy="667.33" fill="rgba(243, 245, 251, 0.55)"></circle><circle r="5" cx="506.8" cy="811.25" fill="rgba(243, 245, 251, 0.55)"></circle><circle r="5" cx="670.83" cy="509.81" fill="rgba(243, 245, 251, 0.55)"></circle><circle r="5" cx="694.52" cy="643.76" fill="rgba(243, 245, 251, 0.55)"></circle><circle r="5" cx="850.68" cy="403.21" fill="rgba(243, 245, 251, 0.55)"></circle><circle r="5" cx="1002.03" cy="347.27" fill="rgba(243, 245, 251, 0.55)"></circle><circle r="5" cx="962.26" cy="547.54" fill="rgba(243, 245, 251, 0.55)"></circle><circle r="5" cx="962.26" cy="681.79" fill="rgba(243, 245, 251, 0.55)"></circle><circle r="5" cx="1097.17" cy="261.61" fill="rgba(243, 245, 251, 0.55)"></circle><circle r="5" cx="1111.85" cy="400.87" fill="rgba(243, 245, 251, 0.55)"></circle><circle r="5" cx="1258.57" cy="41.9" fill="rgba(243, 245, 251, 0.55)"></circle><circle r="5" cx="1240.87" cy="194.96" fill="rgba(243, 245, 251, 0.55)"></circle><circle r="5" cx="1259.08" cy="646.2" fill="rgba(243, 245, 251, 0.55)"></circle><circle r="5" cx="1283.86" cy="844.29" fill="rgba(243, 245, 251, 0.55)"></circle><circle r="5" cx="1394.77" cy="-79.43" fill="rgba(243, 245, 251, 0.55)"></circle><circle r="5" cx="1449.05" cy="94.61" fill="rgba(243, 245, 251, 0.55)"></circle><circle r="5" cx="1388.66" cy="202.63" fill="rgba(243, 245, 251, 0.55)"></circle><circle r="5" cx="1430.98" cy="346.73" fill="rgba(243, 245, 251, 0.55)"></circle><circle r="5" cx="1394.45" cy="559.31" fill="rgba(243, 245, 251, 0.55)"></circle><circle r="5" cx="1424.16" cy="700.17" fill="rgba(243, 245, 251, 0.55)"></circle><circle r="5" cx="1390.7" cy="815.64" fill="rgba(243, 245, 251, 0.55)"></circle><circle r="5" cx="1549.01" cy="-62.22" fill="rgba(243, 245, 251, 0.55)"></circle><circle r="5" cx="1569.83" cy="47.87" fill="rgba(243, 245, 251, 0.55)"></circle><circle r="5" cx="1600.8" cy="219.5" fill="rgba(243, 245, 251, 0.55)"></circle><circle r="5" cx="1592.58" cy="389.55" fill="rgba(243, 245, 251, 0.55)"></circle><circle r="5" cx="1568.65" cy="861.96" fill="rgba(243, 245, 251, 0.55)"></circle></g><defs><mask id="SvgjsMask2915"><rect width="1440" height="630" fill="#ffffff"></rect></mask><linearGradient x1="14.06%" y1="-32.14%" x2="85.94%" y2="132.14%" gradientUnits="userSpaceOnUse" id="SvgjsLinearGradient2916"><stop stop-color="rgba(255, 255, 255, 1)" offset="0"></stop><stop stop-color="rgba(187, 217, 255, 0.87)" offset="1"></stop></linearGradient><radialGradient id="SvgjsRadialGradient2917"><stop stop-color="#ffffff" offset="0.1"></stop><stop stop-color="rgba(23, 53, 179, 0.1)" offset="0.2"></stop><stop stop-color="rgba(23, 53, 179, 0)" offset="1"></stop></radialGradient></defs></svg>