<svg xmlns="http://www.w3.org/2000/svg" version="1.1" xmlns:xlink="http://www.w3.org/1999/xlink" xmlns:svgjs="http://svgjs.dev/svgjs" width="1440" height="560" preserveAspectRatio="none" viewBox="0 0 1440 560"><g mask="url(&quot;#SvgjsMask2817&quot;)" fill="none"><rect width="1440" height="560" x="0" y="0" fill="url(&quot;#SvgjsLinearGradient2818&quot;)"></rect><path d="M -1046.3503535765726,211 C -902.35,261 -614.35,499.4 -326.3503535765725,461 C -38.35,422.6 105.65,16 393.6496464234275,19 C 681.65,22 904.38,452.4 1113.6496464234274,476 C 1322.92,499.6 1374.73,204.8 1440,137" stroke="rgba(132, 161, 191, 0.2)" stroke-width="2"></path><path d="M -176.74510101575333,28 C -32.75,82.8 255.25,260 543.2548989842467,302 C 831.25,344 975.25,193 1263.2548989842467,238 C 1551.25,283 1947.91,532.6 1983.2548989842467,527 C 2018.6,521.4 1548.65,273.4 1440,210" stroke="rgba(132, 161, 191, 0.2)" stroke-width="2"></path><path d="M -141.03383111901474,385 C 2.97,343.4 290.97,175.2 578.9661688809853,177 C 866.97,178.8 1010.97,405.8 1298.9661688809852,394 C 1586.97,382.2 1990.76,140.4 2018.9661688809852,118 C 2047.17,95.6 1555.79,249.2 1440,282" stroke="rgba(132, 161, 191, 0.2)" stroke-width="2"></path><path d="M -253.9694841696729,385 C -109.97,344.6 178.03,163.2 466.0305158303271,183 C 754.03,202.8 898.03,480.8 1186.0305158303272,484 C 1474.03,487.2 1855.24,203 1906.0305158303272,199 C 1956.82,195 1533.21,411 1440,464" stroke="rgba(132, 161, 191, 0.2)" stroke-width="2"></path></g><defs><mask id="SvgjsMask2817"><rect width="1440" height="560" fill="#ffffff"></rect></mask><linearGradient x1="15.28%" y1="-39.29%" x2="84.72%" y2="139.29%" gradientUnits="userSpaceOnUse" id="SvgjsLinearGradient2818"><stop stop-color="rgba(0, 69, 158, 0)" offset="0"></stop><stop stop-color="rgba(6, 98, 255, 0.05)" offset="1"></stop></linearGradient></defs></svg>