<svg xmlns="http://www.w3.org/2000/svg" version="1.1" xmlns:xlink="http://www.w3.org/1999/xlink" xmlns:svgjs="http://svgjs.dev/svgjs" width="1440" height="560" preserveAspectRatio="none" viewBox="0 0 1440 560"><g mask="url(&quot;#SvgjsMask4425&quot;)" fill="none"><rect width="1440" height="560" x="0" y="0" fill="url(&quot;#SvgjsLinearGradient4426&quot;)"></rect><path d="M -608.2598733315117,208 C -464.26,248.8 -176.26,410.4 111.74012666848832,412 C 399.74,413.6 543.74,193.8 831.7401266684883,216 C 1119.74,238.2 1430.09,538.8 1551.7401266684883,523 C 1673.39,507.2 1462.35,214.2 1440,137" stroke="rgba(0, 58, 118, 0.28)" stroke-width="2"></path><path d="M -3.7771787979695546,138 C 140.22,187.6 428.22,367.2 716.2228212020304,386 C 1004.22,404.8 1148.22,223.6 1436.2228212020304,232 C 1724.22,240.4 2155.47,453.6 2156.2228212020304,428 C 2156.98,402.4 1583.24,168.8 1440,104" stroke="rgba(0, 58, 118, 0.28)" stroke-width="2"></path><path d="M -999.7569544014292,405 C -855.76,344.4 -567.76,87.8 -279.7569544014292,102 C 8.24,116.2 152.24,490 440.2430455985708,476 C 728.24,462 960.29,18.4 1160.243045598571,32 C 1360.19,45.6 1384.05,441.6 1440,544" stroke="rgba(0, 58, 118, 0.28)" stroke-width="2"></path><path d="M -1069.2117404542992,372 C -925.21,340.2 -637.21,197.4 -349.2117404542992,213 C -61.21,228.6 82.79,456.6 370.7882595457008,450 C 658.79,443.4 876.95,194.2 1090.7882595457008,180 C 1304.63,165.8 1370.16,339.2 1440,379" stroke="rgba(0, 58, 118, 0.28)" stroke-width="2"></path></g><defs><mask id="SvgjsMask4425"><rect width="1440" height="560" fill="#ffffff"></rect></mask><linearGradient x1="15.28%" y1="-39.29%" x2="84.72%" y2="139.29%" gradientUnits="userSpaceOnUse" id="SvgjsLinearGradient4426"><stop stop-color="rgba(211, 174, 133, 0.98)" offset="0"></stop><stop stop-color="rgba(6, 98, 255, 0.29)" offset="1"></stop></linearGradient></defs></svg>